<svg width="40" height="40" viewBox="0 0 40 40" fill="none" xmlns="http://www.w3.org/2000/svg">
<rect width="40" height="40" rx="8" fill="#3C86F4" fill-opacity="0.2"/>
<path d="M16.2 21.8C17.8774 21.8 19.2869 22.9473 19.6866 24.5H29.7C30.197 24.5 30.6 24.903 30.6 25.4C30.6 25.8419 30.2816 26.2093 29.8618 26.2854L29.7 26.3L19.6861 26.3018C19.2858 27.8536 17.8768 29 16.2 29C14.5232 29 13.1142 27.8536 12.7139 26.3018L9.9 26.3C9.40295 26.3 9 25.897 9 25.4C9 24.9581 9.31838 24.5907 9.73822 24.5146L9.9 24.5H12.7134C13.1131 22.9473 14.5226 21.8 16.2 21.8ZM16.2 23.6C15.2059 23.6 14.4 24.4059 14.4 25.4C14.4 26.3941 15.2059 27.2 16.2 27.2C17.1941 27.2 18 26.3941 18 25.4C18 24.4059 17.1941 23.6 16.2 23.6ZM23.4 11C25.0774 11 26.487 12.1473 26.8866 13.7L29.7 13.7C30.197 13.7 30.6 14.1029 30.6 14.6C30.6 15.0418 30.2816 15.4093 29.8618 15.4855L29.7 15.5L26.8861 15.5018C26.4859 17.0536 25.0769 18.2 23.4 18.2C21.7232 18.2 20.3142 17.0536 19.9139 15.5018L9.9 15.5C9.40295 15.5 9 15.0971 9 14.6C9 14.1582 9.31838 13.7907 9.73822 13.7145L9.9 13.7L19.9134 13.7C20.3131 12.1473 21.7226 11 23.4 11ZM23.4 12.8C22.4059 12.8 21.6 13.6059 21.6 14.6C21.6 15.5941 22.4059 16.4 23.4 16.4C24.3941 16.4 25.2 15.5941 25.2 14.6C25.2 13.6059 24.3941 12.8 23.4 12.8Z" fill="#3C86F4"/>
</svg>
